<svg id="Capa_1" data-name="Capa 1" xmlns="http://www.w3.org/2000/svg" viewBox="0 0 214.07 240.86"><defs><style>.cls-1{fill:#f0f9ff;}</style></defs><title>logout white</title><g id="logout_white" data-name="logout white"><path class="cls-1" d="M751.07,145,663,94.14V128H604.07a17,17,0,0,0,0,34H663v33.86Z" transform="translate(-537 -24.57)"/><path class="cls-1" d="M693,198.93v48.5H555V42.57H693V90.65l18,10.4V33.57a9,9,0,0,0-9-9H546a9,9,0,0,0-9,9V256.43a9,9,0,0,0,9,9H702a9,9,0,0,0,9-9V188.54Z" transform="translate(-537 -24.57)"/></g></svg>