<svg id="Capa_1" data-name="Capa 1" xmlns="http://www.w3.org/2000/svg" viewBox="0 0 240.11 240.11"><defs><style>.cls-1{fill:#0c4a6e;}.cls-2{fill:#f0f9ff;}</style></defs><title>logo blue print</title><g id="logo"><g id="fondo"><circle class="cls-1" cx="120.05" cy="120.05" r="120.05"/></g><g id="logo-2" data-name="logo"><path class="cls-2" d="M174,43.4V246.6a101.67,101.67,0,0,0,18-3.25V154h74.6c.26-3,.4-6,.4-9A102.14,102.14,0,0,0,174,43.4Zm18,22.08A84.17,84.17,0,0,1,248.5,136H192Z" transform="translate(-44.95 -24.95)"/><path class="cls-2" d="M63.4,136H138v18H63.4A102.16,102.16,0,0,0,156,246.6V43.4A102.16,102.16,0,0,0,63.4,136Zm22.08,36H138v52.53A84.34,84.34,0,0,1,85.48,172ZM138,118H85.48A84.34,84.34,0,0,1,138,65.47Z" transform="translate(-44.95 -24.95)"/></g></g></svg>