<svg id="Capa_1" data-name="Capa 1" xmlns="http://www.w3.org/2000/svg" viewBox="0 0 275 219.53"><defs><style>.cls-1{fill:#f0f9ff;}</style></defs><title>chat white</title><g id="chat_white" data-name="chat white"><path class="cls-1" d="M1056,145c0-28-14.68-54.24-41.32-73.73C988.88,52.39,954.72,42,918.5,42s-70.38,10.39-96.18,29.27C795.68,90.76,781,117,781,145s14.68,54.24,41.32,73.73c25.8,18.88,60,29.27,96.18,29.27a182,182,0,0,0,40.56-4.52l68.07,18-10.26-44.44C1042.13,197.78,1056,172.27,1056,145Zm-43.64,52.55a107.55,107.55,0,0,1-15.76,11.73l4.23,18.32,2,8.87L990,233.07l-30.78-8.16A163,163,0,0,1,918.5,230q-6,0-11.85-.42C846.3,225.34,799,189,799,145c0-46.87,53.61-85,119.5-85S1038,98.13,1038,145C1038,164.82,1028.41,183.08,1012.36,197.55Z" transform="translate(-781 -42)"/><circle class="cls-1" cx="137" cy="103" r="9"/><circle class="cls-1" cx="83" cy="103" r="9"/><circle class="cls-1" cx="191" cy="103" r="9"/></g></svg>