<svg id="Capa_1" data-name="Capa 1" xmlns="http://www.w3.org/2000/svg" viewBox="0 0 220 220"><defs><style>.cls-1{fill:#f0f9ff;}</style></defs><title>esc white</title><g id="esc_white" data-name="esc white"><path class="cls-1" d="M1209,60a92,92,0,1,1-92,92,92.1,92.1,0,0,1,92-92m0-18a110,110,0,1,0,110,110A110,110,0,0,0,1209,42Z" transform="translate(-1099 -42)"/><path class="cls-1" d="M1261.33,213.33a9,9,0,0,1-6.37-2.64L1150.31,106A9,9,0,0,1,1163,93.31L1267.69,198a9,9,0,0,1-6.36,15.37Z" transform="translate(-1099 -42)"/><path class="cls-1" d="M1156.67,213.33a9,9,0,0,1-6.36-15.37L1255,93.31A9,9,0,0,1,1267.69,106L1163,210.69A9,9,0,0,1,1156.67,213.33Z" transform="translate(-1099 -42)"/></g></svg>