<svg id="Capa_1" data-name="Capa 1" xmlns="http://www.w3.org/2000/svg" viewBox="0 0 213.93 240.86"><defs><style>.cls-1{fill:#f0f9ff;}</style></defs><title>login white</title><g id="login_white" data-name="login white"><path class="cls-1" d="M496,24.57H340a9,9,0,0,0-9,9v76.84h18V42.57H487V247.43H349v-68H331v77a9,9,0,0,0,9,9H496a9,9,0,0,0,9-9V33.57A9,9,0,0,0,496,24.57Z" transform="translate(-291.07 -24.57)"/><path class="cls-1" d="M455.07,145,367,94.14V128H308.07a17,17,0,0,0,0,34H367v33.86Z" transform="translate(-291.07 -24.57)"/></g></svg>