<svg id="Capa_1" data-name="Capa 1" xmlns="http://www.w3.org/2000/svg" viewBox="0 0 240.11 240.11"><defs><style>.cls-1{fill:#f0f9ff;}.cls-2{fill:#0c4a6e;}</style></defs><title>logo blue print white</title><g id="logo_white" data-name="logo white"><circle id="fondo" class="cls-1" cx="120.05" cy="120.05" r="120.05"/><g id="logo"><path class="cls-2" d="M156,43.4V246.6a101.67,101.67,0,0,0,18-3.25V154h74.6c.26-3,.4-6,.4-9A102.14,102.14,0,0,0,156,43.4Zm18,22.08A84.17,84.17,0,0,1,230.5,136H174Z" transform="translate(-26.95 -24.95)"/><path class="cls-2" d="M45.4,136H120v18H45.4A102.16,102.16,0,0,0,138,246.6V43.4A102.16,102.16,0,0,0,45.4,136Zm22.08,36H120v52.53A84.34,84.34,0,0,1,67.48,172ZM120,118H67.48A84.34,84.34,0,0,1,120,65.47Z" transform="translate(-26.95 -24.95)"/></g></g></svg>