<svg id="Capa_1" data-name="Capa 1" xmlns="http://www.w3.org/2000/svg" viewBox="0 0 213.93 240.86"><defs><style>.cls-1{fill:#0c4a6e;}</style></defs><title>login</title><g id="login"><path class="cls-1" d="M608,24.57H452a9,9,0,0,0-9,9v76.84h18V42.57H599V247.43H461v-68H443v77a9,9,0,0,0,9,9H608a9,9,0,0,0,9-9V33.57A9,9,0,0,0,608,24.57Z" transform="translate(-403.07 -24.57)"/><path class="cls-1" d="M567.07,145,479,94.14V128H420.07a17,17,0,1,0,0,34H479v33.86Z" transform="translate(-403.07 -24.57)"/></g></svg>