<svg id="Capa_1" data-name="Capa 1" xmlns="http://www.w3.org/2000/svg" viewBox="0 0 214.07 240.86"><defs><style>.cls-1{fill:#0c4a6e;}</style></defs><title>logout</title><g id="logout"><path class="cls-1" d="M960.07,145,872,94.14V128H813.07a17,17,0,0,0,0,34H872v33.86Z" transform="translate(-746 -24.57)"/><path class="cls-1" d="M902,198.93v48.5H764V42.57H902V90.65l18,10.4V33.57a9,9,0,0,0-9-9H755a9,9,0,0,0-9,9V256.43a9,9,0,0,0,9,9H911a9,9,0,0,0,9-9V188.54Z" transform="translate(-746 -24.57)"/></g></svg>