<svg id="Capa_1" data-name="Capa 1" xmlns="http://www.w3.org/2000/svg" viewBox="0 0 275 219.53"><defs><style>.cls-1{fill:#0c4a6e;}</style></defs><title>chat blue</title><g id="chat_blue" data-name="chat blue"><path class="cls-1" d="M1056,469c0-28.05-14.68-54.24-41.32-73.73-25.8-18.88-60-29.27-96.18-29.27s-70.38,10.39-96.18,29.27C795.68,414.76,781,441,781,469s14.68,54.24,41.32,73.73c25.8,18.88,60,29.27,96.18,29.27a182,182,0,0,0,40.56-4.52l68.07,18-10.26-44.44C1042.13,521.78,1056,496.27,1056,469Zm-43.64,52.55a107.55,107.55,0,0,1-15.76,11.73l4.23,18.32,2,8.87L990,557.07l-30.78-8.16A163,163,0,0,1,918.5,554q-6,0-11.85-.42C846.3,549.34,799,513,799,469c0-46.87,53.61-85,119.5-85S1038,422.13,1038,469C1038,488.82,1028.41,507.08,1012.36,521.55Z" transform="translate(-781 -366)"/><circle class="cls-1" cx="137" cy="103" r="9"/><circle class="cls-1" cx="83" cy="103" r="9"/><circle class="cls-1" cx="191" cy="103" r="9"/></g></svg>