<svg id="Capa_1" data-name="Capa 1" xmlns="http://www.w3.org/2000/svg" viewBox="0 0 220 220"><defs><style>.cls-1{fill:#0c4a6e;}</style></defs><title>esc blue</title><g id="esc_blue" data-name="esc blue"><path class="cls-1" d="M1209,377a92,92,0,1,1-92,92,92.1,92.1,0,0,1,92-92m0-18a110,110,0,1,0,110,110,110,110,0,0,0-110-110Z" transform="translate(-1099 -359)"/><path class="cls-1" d="M1261.33,530.33a9,9,0,0,1-6.37-2.64L1150.31,423A9,9,0,0,1,1163,410.31L1267.69,515a9,9,0,0,1-6.36,15.37Z" transform="translate(-1099 -359)"/><path class="cls-1" d="M1156.67,530.33a9,9,0,0,1-6.36-15.37L1255,410.31A9,9,0,0,1,1267.69,423L1163,527.69A9,9,0,0,1,1156.67,530.33Z" transform="translate(-1099 -359)"/></g></svg>